<svg width="20" height="20" viewBox="0 0 20 20" fill="none" xmlns="http://www.w3.org/2000/svg">
<path d="M11.6667 2.91663C11.6667 3.60829 11.1083 4.16663 10.4167 4.16663C9.725 4.16663 9.16667 3.60829 9.16667 2.91663C9.16667 2.22496 9.725 1.66663 10.4167 1.66663C11.1083 1.66663 11.6667 2.22496 11.6667 2.91663ZM7.08333 4.16663C6.39167 4.16663 5.83333 4.72496 5.83333 5.41663C5.83333 6.10829 6.39167 6.66663 7.08333 6.66663C7.775 6.66663 8.33333 6.10829 8.33333 5.41663C8.33333 4.72496 7.775 4.16663 7.08333 4.16663ZM11.6667 9.99996L11.0167 8.12496H13.4833L15.2833 7.22496C15.5917 7.08329 15.7167 6.69996 15.5583 6.39163C15.5231 6.31754 15.4733 6.25127 15.412 6.19673C15.3507 6.14219 15.2791 6.10048 15.2015 6.07407C15.1238 6.04766 15.0416 6.03708 14.9598 6.04296C14.8779 6.04884 14.7981 6.07105 14.725 6.10829L14.0417 6.44996L13.6333 5.74996C13.3917 5.20829 12.8 4.89996 12.2167 5.03329L10.1583 5.47496C9.58333 5.59996 9.16667 6.12496 9.16667 6.72496V7.30829L7.14167 8.65829H7.15C7.08333 8.71663 6.99167 8.79163 6.94167 8.89163L6.2 10.3666L4.71667 11.1083C4.40833 11.25 4.28333 11.6416 4.44167 11.95C4.51709 12.0978 4.64799 12.2097 4.80572 12.2612C4.96346 12.3128 5.13519 12.2997 5.28333 12.225L7.13333 11.3L8 9.58329L9.16667 10.8333C8.33333 13.3333 2.5 16.6666 2.5 16.6666C2.5 16.6666 5.83333 18.3333 10 18.3333C14.1667 18.3333 17.5 16.6666 17.5 16.6666C17.5 16.6666 13.3333 13.3333 11.6667 9.99996ZM14.0417 9.24163L13.775 9.37496H12.775L12.825 9.50829C13.2583 10.3666 13.8917 11.25 14.5833 12.0333L14.1417 9.19163L14.0417 9.24163Z" fill="#A19991"/>
</svg>
