<svg width="20" height="20" viewBox="0 0 20 20" fill="none" xmlns="http://www.w3.org/2000/svg">
<path d="M4.10744 17.9017L8.97911 13.03C9.33366 13.1258 9.70991 13.1017 10.0493 12.9615C10.3888 12.8213 10.6724 12.5728 10.856 12.2548C11.0396 11.9368 11.113 11.5669 11.0648 11.2029C11.0165 10.8388 10.8493 10.5009 10.5891 10.2417C10.3297 9.98229 9.99188 9.81572 9.62812 9.76784C9.26436 9.71996 8.89497 9.79345 8.57723 9.97692C8.2595 10.1604 8.01118 10.4436 7.8708 10.7825C7.73041 11.1215 7.7058 11.4973 7.80078 11.8517L2.92911 16.7234L2.04578 15.84C4.40244 13.09 5.28578 10.045 6.46411 4.93838L11.7674 4.34922L16.4816 9.06338L15.8924 14.3659C10.7858 15.545 7.74078 16.4284 4.99161 18.7859L4.10744 17.9017ZM13.8299 1.69755L19.1191 6.98588C19.1736 7.04029 19.212 7.10874 19.2299 7.18363C19.2479 7.25853 19.2447 7.33693 19.2208 7.41013C19.1969 7.48334 19.1532 7.54849 19.0945 7.59834C19.0358 7.64819 18.9644 7.6808 18.8883 7.69255L17.6599 7.88422L12.9466 3.17005L13.1233 1.93255C13.1344 1.85609 13.1665 1.78423 13.2161 1.72499C13.2657 1.66576 13.3308 1.62147 13.4041 1.59709C13.4774 1.57272 13.5561 1.5692 13.6313 1.58694C13.7065 1.60468 13.7753 1.64297 13.8299 1.69755Z" fill="#A19991"/>
</svg>
