<svg width="20" height="20" viewBox="0 0 20 20" fill="none" xmlns="http://www.w3.org/2000/svg">
<path d="M15.0012 16.6666H16.667V18.3333H10.0003C5.39783 18.3333 1.66699 14.6025 1.66699 9.99996C1.66699 5.39746 5.39783 1.66663 10.0003 1.66663C14.6028 1.66663 18.3337 5.39746 18.3337 9.99996C18.3347 11.2938 18.0341 12.57 17.4556 13.7273C16.8771 14.8846 16.0367 15.891 15.0012 16.6666ZM10.0003 8.33329C10.4424 8.33329 10.8663 8.1577 11.1788 7.84514C11.4914 7.53258 11.667 7.10865 11.667 6.66663C11.667 6.2246 11.4914 5.80067 11.1788 5.48811C10.8663 5.17555 10.4424 4.99996 10.0003 4.99996C9.5583 4.99996 9.13438 5.17555 8.82181 5.48811C8.50925 5.80067 8.33366 6.2246 8.33366 6.66663C8.33366 7.10865 8.50925 7.53258 8.82181 7.84514C9.13438 8.1577 9.5583 8.33329 10.0003 8.33329ZM6.66699 11.6666C7.10902 11.6666 7.53294 11.491 7.8455 11.1785C8.15806 10.8659 8.33366 10.442 8.33366 9.99996C8.33366 9.55793 8.15806 9.13401 7.8455 8.82145C7.53294 8.50889 7.10902 8.33329 6.66699 8.33329C6.22496 8.33329 5.80104 8.50889 5.48848 8.82145C5.17592 9.13401 5.00033 9.55793 5.00033 9.99996C5.00033 10.442 5.17592 10.8659 5.48848 11.1785C5.80104 11.491 6.22496 11.6666 6.66699 11.6666ZM13.3337 11.6666C13.7757 11.6666 14.1996 11.491 14.5122 11.1785C14.8247 10.8659 15.0003 10.442 15.0003 9.99996C15.0003 9.55793 14.8247 9.13401 14.5122 8.82145C14.1996 8.50889 13.7757 8.33329 13.3337 8.33329C12.8916 8.33329 12.4677 8.50889 12.1551 8.82145C11.8426 9.13401 11.667 9.55793 11.667 9.99996C11.667 10.442 11.8426 10.8659 12.1551 11.1785C12.4677 11.491 12.8916 11.6666 13.3337 11.6666ZM10.0003 15C10.4424 15 10.8663 14.8244 11.1788 14.5118C11.4914 14.1992 11.667 13.7753 11.667 13.3333C11.667 12.8913 11.4914 12.4673 11.1788 12.1548C10.8663 11.8422 10.4424 11.6666 10.0003 11.6666C9.5583 11.6666 9.13438 11.8422 8.82181 12.1548C8.50925 12.4673 8.33366 12.8913 8.33366 13.3333C8.33366 13.7753 8.50925 14.1992 8.82181 14.5118C9.13438 14.8244 9.5583 15 10.0003 15Z" fill="#A19991"/>
</svg>
