<svg width="20" height="20" viewBox="0 0 20 20" fill="none" xmlns="http://www.w3.org/2000/svg">
<path d="M16.6663 2.5V14.1667C16.6662 14.9004 16.4239 15.6136 15.9771 16.1956C15.5303 16.7777 14.904 17.196 14.1952 17.3858C13.4864 17.5756 12.7348 17.5262 12.057 17.2453C11.3791 16.9644 10.8129 16.4677 10.4461 15.8323C10.0793 15.1968 9.9324 14.458 10.0282 13.7306C10.1241 13.0031 10.4573 12.3276 10.9761 11.8088C11.495 11.29 12.1705 10.9568 12.898 10.8611C13.6255 10.7653 14.3642 10.9123 14.9997 11.2792V5H7.49968V14.1667C7.49951 14.9004 7.25725 15.6136 6.81046 16.1956C6.36367 16.7777 5.73731 17.196 5.02853 17.3858C4.31976 17.5756 3.56816 17.5262 2.8903 17.2453C2.21245 16.9644 1.64621 16.4677 1.27941 15.8323C0.912604 15.1968 0.765732 14.458 0.861566 13.7306C0.957401 13.0031 1.29059 12.3276 1.80946 11.8088C2.32832 11.29 3.00388 10.9568 3.73135 10.8611C4.45882 10.7653 5.19757 10.9123 5.83301 11.2792V2.5H16.6663Z" fill="#A19991"/>
</svg>
