<svg width="20" height="20" viewBox="0 0 20 20" fill="none" xmlns="http://www.w3.org/2000/svg">
<path d="M15.8337 18.3333H4.16699C3.50395 18.3333 2.86807 18.0699 2.39923 17.6011C1.93038 17.1322 1.66699 16.4963 1.66699 15.8333V2.49996C1.66699 2.27895 1.75479 2.06698 1.91107 1.9107C2.06735 1.75442 2.27931 1.66663 2.50033 1.66663H14.167C14.388 1.66663 14.6 1.75442 14.7562 1.9107C14.9125 2.06698 15.0003 2.27895 15.0003 2.49996V8.33329H18.3337V15.8333C18.3337 16.4963 18.0703 17.1322 17.6014 17.6011C17.1326 18.0699 16.4967 18.3333 15.8337 18.3333ZM15.0003 9.99996V15.8333C15.0003 16.0543 15.0881 16.2663 15.2444 16.4225C15.4007 16.5788 15.6126 16.6666 15.8337 16.6666C16.0547 16.6666 16.2666 16.5788 16.4229 16.4225C16.5792 16.2663 16.667 16.0543 16.667 15.8333V9.99996H15.0003ZM4.16699 4.99996V9.99996H9.16699V4.99996H4.16699ZM4.16699 10.8333V12.5H12.5003V10.8333H4.16699ZM4.16699 13.3333V15H12.5003V13.3333H4.16699ZM5.83366 6.66663H7.50033V8.33329H5.83366V6.66663Z" fill="#A19991"/>
</svg>
